<svg width="1000" height="1000" viewBox="0 0 1000 1000" fill="none" xmlns="http://www.w3.org/2000/svg">
<path d="M580.105 194.064C606.653 201.072 622.865 228.386 615.64 255.347L491.803 717.515C577.329 720.599 657.596 672.73 695.314 595.438C696.195 593.632 698.56 593.121 700.162 594.333C714.401 605.098 747.362 620.149 789.754 612.035C792.109 611.584 794.112 613.887 793.231 616.117C735.171 763.034 575.11 846.398 418.824 805.139L418.822 805.138C392.277 798.129 376.064 770.817 383.288 743.855L507.126 281.687C421.809 278.611 341.724 326.239 303.892 403.198C303.03 404.95 300.758 405.471 299.189 404.309C270.264 382.895 230.566 382.857 209.539 386.208C207.182 386.584 205.228 384.258 206.113 382.041C264.517 235.773 424.189 152.902 580.105 194.064Z" fill="white"/>
<path d="M826.458 499.094C826.458 532.507 799.371 559.594 765.958 559.594C732.545 559.594 705.458 532.507 705.458 499.094C705.458 465.681 732.545 438.594 765.958 438.594C799.371 438.594 826.458 465.681 826.458 499.094Z" fill="#3994FF"/>
<path d="M293.458 499.094C293.458 532.507 266.371 559.594 232.958 559.594C199.545 559.594 172.458 532.507 172.458 499.094C172.458 465.681 199.545 438.594 232.958 438.594C266.371 438.594 293.458 465.681 293.458 499.094Z" fill="#3994FF"/>
</svg>
